# xmcd
#
# Track frame offsets:
#	150
#	20830
#	40290
#	58235
#	72872
#	88810
#	108880
#	124945
#	142670
#	159335
#	175622
#	193972
#	214452
#	245235
#	262800
#	280405
#	302697
#	319452
#
# Disc length: 4479 seconds
#
# Revision: 2
# Processed by: cddbd v1.5.2PL0 Copyright (c) Steve Scherf et al.
# Submitted via: audiograbber 1.83.01
#
DISCID=13117d12
DTITLE=Various Artists - Late Night Moods 3 [Disc 2]
DYEAR=2006
DGENRE=Jazz
TTITLE0=The Cranberries - Linger (Album Version)
TTITLE1=Kasey Chambers - Million Tears
TTITLE2=Carla Werner - Wanderlust
TTITLE3=Katie Melua - Nine Million Bicycles
TTITLE4=Joan Armatrading - The Weakness In Me
TTITLE5=Neneh Cherry - Woman
TTITLE6=Gabrielle - Rise (Album Version)
TTITLE7=Karen Ramirez - Looking For Love (Original Version)
TTITLE8=Jamelia - See It In A Boy's Eyes
TTITLE9=Jessica - How Will I Know (Who You Are)
TTITLE10=Pat Benatar - Don't Walk Away
TTITLE11=Artful Dodger featuring Michelle Escoffery - Think About Me
TTITLE12=Sarah Brightman - You Take My Breath Away
TTITLE13=Sophie B. Hawkins - Right Beside You
TTITLE14=Donna Lewis - I Love You Always Forever
TTITLE15=Jenny Morris - I've Had You
TTITLE16=Kylie Minogue - Bittersweet Goodbye
TTITLE17=Anne Murray - You Needed Me
EXTD=YEAR: 2006
EXTT0=
EXTT1=
EXTT2=
EXTT3=
EXTT4=
EXTT5=
EXTT6=
EXTT7=
EXTT8=
EXTT9=
EXTT10=
EXTT11=
EXTT12=
EXTT13=
EXTT14=
EXTT15=
EXTT16=
EXTT17=
PLAYORDER=
